<svg xmlns="http://www.w3.org/2000/svg" xmlns:xlink="http://www.w3.org/1999/xlink" fill="none" version="1.1" width="344" height="38.00048828125" viewBox="0 0 344 38.00048828125"><defs><clipPath id="master_svg0_2080_009512"><g style="mix-blend-mode:passthrough"><path d="M0,0L25.1285,0L25.1285,38L0,38L0,0Z" fill-rule="evenodd" fill="#FFFFFF" fill-opacity="1"/></g></clipPath></defs><g style="mix-blend-mode:passthrough"><g style="mix-blend-mode:passthrough"><g style="mix-blend-mode:passthrough"><path d="M70.7435245300293,2.4782078747940064C67.9226245300293,0.7022028747940063,61.2862245300293,0.8260429347940064,61.2862245300293,0.8260429347940064L51.1234245300293,0.8260429347940064L51.1234245300293,37.17378787479401L61.410624530029295,37.17378787479401L61.410624530029295,6.815097874794007L62.4475245300293,6.815097874794007C65.18532453002929,6.815097874794007,64.8945245300293,9.293147874794006,64.8945245300293,9.293147874794006L64.8945245300293,14.001987874794006C64.8945245300293,16.232387874794007,63.0282245300293,16.356187874794006,63.0282245300293,16.356187874794006L63.0282245300293,22.345287874794007L65.3512245300293,22.345287874794007C70.5360245300293,22.097587874794005,71.90492453002929,20.238687874794007,71.90492453002929,20.238687874794007C73.2737245300293,18.917087874794007,73.3565245300293,16.769087874794007,73.3565245300293,16.769087874794007L73.3565245300293,7.5585578747940065C73.3565245300293,3.9237078747940064,70.7435245300293,2.4782078747940064,70.7435245300293,2.4782078747940064L70.7435245300293,2.4782078747940064Z" fill-rule="evenodd" fill="#B71D26" fill-opacity="1"/></g><g style="mix-blend-mode:passthrough"><path d="M87.4596331237793,21.80871875L93.9721331237793,21.80871875L93.9721331237793,14.99331875L87.4180331237793,14.99331875L87.4180331237793,7.97173875L94.3868331237793,7.97173875L94.3868331237793,0.82421875L77.0897331237793,0.82421875L77.0897331237793,37.17401875L95.1750331237793,37.17401875L95.1750331237793,29.98671875L87.4596331237793,29.98671875L87.4596331237793,21.80871875Z" fill-rule="evenodd" fill="#B71D26" fill-opacity="1"/></g><g style="mix-blend-mode:passthrough"><path d="M110.53655275268555,0C99.19874475268554,0,98.64553775268554,8.04008,98.64553775268554,8.04008C98.09274675268554,19.6057,98.64553775268554,29.353,98.64553775268554,29.353C98.92214175268555,33.2637,101.63202275268554,35.2369,101.63202275268554,35.2369C104.45296275268555,37.5961,108.65605275268555,37.8346,108.65605275268555,37.8346L108.65605275268555,8.4261L108.65605275268555,8.09558C108.65605275268555,5.94764,110.46875275268555,6.1129,110.46875275268555,6.1129C112.33725275268554,6.1129,112.08515275268554,8.3706,112.08515275268554,8.3706L112.08515275268554,30.1793C112.08515275268554,32.1069,110.46875275268555,31.8866,110.46875275268555,31.8866L110.46875275268555,37.8346C121.90515275268555,37.9995,122.20635275268555,29.4085,122.20635275268555,29.4085C122.95295275268555,17.8156,122.20635275268555,8.09558,122.20635275268555,8.09558C121.21055275268554,0,110.53655275268555,0,110.53655275268555,0L110.53655275268555,0Z" fill-rule="evenodd" fill="#B71D26" fill-opacity="1"/></g><g style="mix-blend-mode:passthrough"><path d="M146.51340346069335,2.4782078747940064C143.69290346069334,0.7022028747940063,137.05610346069335,0.8260429347940064,137.05610346069335,0.8260429347940064L126.89370346069336,0.8260429347940064L126.89370346069336,37.17378787479401L137.18040346069336,37.17378787479401L137.18040346069336,6.815097874794007L138.21740346069336,6.815097874794007C140.95510346069335,6.815097874794007,140.66480346069335,9.293147874794006,140.66480346069335,9.293147874794006L140.66480346069335,14.001987874794006C140.66480346069335,16.232387874794007,138.79810346069337,16.356187874794006,138.79810346069337,16.356187874794006L138.79810346069337,22.345287874794007L141.12110346069335,22.345287874794007C146.30590346069334,22.097587874794005,147.67470346069337,20.238687874794007,147.67470346069337,20.238687874794007C149.04360346069336,18.917087874794007,149.12680346069337,16.769087874794007,149.12680346069337,16.769087874794007L149.12680346069337,7.5585578747940065C149.12680346069337,3.9237078747940064,146.51340346069335,2.4782078747940064,146.51340346069335,2.4782078747940064L146.51340346069335,2.4782078747940064Z" fill-rule="evenodd" fill="#B71D26" fill-opacity="1"/></g><g style="mix-blend-mode:passthrough"><path d="M183.11432672729492,21.810271875L189.6268267272949,21.810271875L189.6268267272949,14.995271875L183.07272672729493,14.995271875L183.07272672729493,7.973691875L190.04152672729492,7.973691875L190.04152672729492,0.826171875L172.74442672729492,0.826171875L172.74442672729492,37.175571875L190.8297267272949,37.175571875L190.8297267272949,29.988271875L183.11432672729492,29.988271875L183.11432672729492,21.810271875Z" fill-rule="evenodd" fill="#B71D26" fill-opacity="1"/></g><g style="mix-blend-mode:passthrough"><path d="M193.1368522644043,7.8201100166893L194.8513822644043,7.8201100166893C194.8513822644043,7.8201100166893,194.7686022644043,9.3343600166893,193.1368522644043,9.8028000166893L193.1368522644043,12.3910500166893C193.1368522644043,12.3910500166893,199.3589722644043,11.179550016689301,199.60771226440428,6.0855200166893L199.60771226440428,0.8262500166893005L193.1368522644043,0.8262500166893005L193.1368522644043,7.8201100166893Z" fill-rule="evenodd" fill="#B71D26" fill-opacity="1"/></g><g style="mix-blend-mode:passthrough"><path d="M221.29498952026367,17.347965625L214.40068952026368,13.327865625C214.40068952026368,13.327865625,212.56347952026368,12.329765625,212.29352952026366,10.842765625C212.29352952026366,10.842765625,212.13505952026367,9.934095625,212.14878952026368,8.983965625C212.14878952026368,8.983965625,212.08638952026368,7.545105625,212.66708952026366,6.774315625C212.66708952026366,6.774315625,213.16498952026367,6.071865625,214.09788952026366,6.071865625C214.09788952026366,6.071865625,214.86528952026367,6.030855625,215.42558952026369,6.594975625C215.42558952026369,6.594975625,215.86778952026367,7.077075625,215.88148952026367,8.095965625L215.84028952026367,11.785465625L225.30808952026368,9.572515625C225.30808952026368,9.572515625,226.02348952026367,6.495565625,224.21908952026368,3.855575625C224.21908952026368,3.855575625,222.50458952026366,1.294285625,218.21868952026367,0.441067625C218.21868952026367,0.441067625,212.74278952026367,-0.605154375,208.20811952026366,0.826670625C208.20811952026366,0.826670625,202.62197702026367,2.533515625,202.62197702026367,8.095965625C202.62197702026367,8.095965625,202.55293012026368,11.194065625,202.62197702026367,12.391465625C202.62197702026367,12.391465625,202.60825082026366,16.397765625,206.54891952026367,18.752465625L214.72018952026366,23.874165625C214.72018952026366,23.874165625,216.24128952026368,24.782465625,216.43468952026367,26.889065625C216.43468952026367,26.889065625,216.68378952026367,29.050665625,216.19968952026366,30.744265625C216.19968952026366,30.744265625,215.85398952026367,31.914665625,214.30548952026368,31.914665625C214.30548952026368,31.914665625,212.36964952026366,32.052165625,212.36964952026366,30.055865625L212.36964952026366,24.369565625L202.85698652026366,27.935665625C202.85698652026366,27.935665625,202.62197702026367,33.015965625,205.74696952026366,35.356565625C205.74696952026366,35.356565625,208.92728952026368,37.999865625,214.34708952026367,37.999865625C214.34708952026367,37.999865625,220.15408952026368,38.110065625,223.66588952026368,35.384265625C223.66588952026368,35.384265625,226.27928952026366,33.580165625,226.21018952026367,29.628865625C226.21018952026367,29.628865625,226.21938952026366,26.311265625,225.96148952026368,23.998065625C225.96148952026368,23.998065625,225.60168952026368,19.908865625,221.29498952026367,17.347965625L221.29498952026367,17.347965625Z" fill-rule="evenodd" fill="#B71D26" fill-opacity="1"/></g><g style="mix-blend-mode:passthrough"><path d="M247.07548441772462,0.9322503125C247.07548441772462,0.9322503125,243.67388441772462,0.6845703125,241.46185441772462,0.6845703125L231.9491844177246,0.6845703125L231.9491844177246,37.1519703125L242.3739844177246,37.1519703125L242.3739844177246,6.8252203125C242.3739844177246,6.8252203125,245.6928844177246,6.3021103125,245.6928844177246,8.6422303125L245.6928844177246,27.9728703125C245.6928844177246,27.9728703125,245.6928844177246,29.4651703125,245.2569844177246,30.2032703125C245.2569844177246,30.2032703125,244.9353844177246,30.7864703125,244.0019844177246,30.9160703125L244.0019844177246,37.1519703125C244.0019844177246,37.1519703125,249.5091844177246,37.1975703125,252.1911844177246,36.2883703125C252.1911844177246,36.2883703125,253.9884844177246,35.6555703125,254.8735844177246,34.3612703125C254.8735844177246,34.3612703125,256.0348844177246,32.8742703125,256.0348844177246,29.7903703125L256.0348844177246,9.1106703125C256.0348844177246,9.1106703125,256.1176844177246,5.3105603125,253.8777844177246,3.2454503125C253.8777844177246,3.2454503125,251.8591844177246,1.2350173125000001,247.07548441772462,0.9322503125L247.07548441772462,0.9322503125Z" fill-rule="evenodd" fill="#B71D26" fill-opacity="1"/></g><g style="mix-blend-mode:passthrough"><path d="M258.16405868530273,37.15195862998962L263.47359868530276,0.684558629989624L278.35155868530273,0.684558629989624L284.4351586853027,37.15235862998962L273.95415868530273,37.15235862998962L273.3735586853027,30.560658629989625L269.33635868530274,30.560658629989625L268.8384586853027,37.15195862998962L258.16405868530273,37.15195862998962ZM271.43805868530274,8.669908629989624L269.2809586853027,24.062558629989624L273.09725868530273,24.062558629989624L271.43805868530274,8.669908629989624Z" fill-rule="evenodd" fill="#B71D26" fill-opacity="1"/></g><g style="mix-blend-mode:passthrough"><path d="M286.9234733581543,37.15231726436615L297.3208733581543,37.15231726436615L297.3208733581543,0.6845172643661499L286.9234733581543,0.6845172643661499L286.9234733581543,37.15231726436615Z" fill-rule="evenodd" fill="#B71D26" fill-opacity="1"/></g><g style="mix-blend-mode:passthrough"><path d="M312.3094015808106,0.6845703125L301.94990158081055,0.6845703125L301.94990158081055,37.1523703125L318.69710158081057,37.1523703125L318.69710158081057,29.9137703125L312.3094015808106,29.9137703125L312.3094015808106,0.6845703125Z" fill-rule="evenodd" fill="#B71D26" fill-opacity="1"/></g><g style="mix-blend-mode:passthrough"><path d="M163.24358279418945,0.8017578125L152.88408279418945,0.8017578125L152.88408279418945,37.2695578125L169.63168279418946,37.2695578125L169.63168279418946,30.0309578125L163.24358279418945,30.0309578125L163.24358279418945,0.8017578125Z" fill-rule="evenodd" fill="#B71D26" fill-opacity="1"/></g><g style="mix-blend-mode:passthrough"><path d="M334.62542306518554,0.6845703125L331.47292306518557,15.1684703125L328.8184030651855,0.6845703125L319.58442306518555,0.6845703125L326.8272730651855,23.8422703125L326.8272730651855,37.1519703125L336.36742306518556,37.1519703125L336.36742306518556,24.0075703125L344.00002306518553,0.6845703125L334.62542306518554,0.6845703125Z" fill-rule="evenodd" fill="#B71D26" fill-opacity="1"/></g></g><g style="mix-blend-mode:passthrough"><g style="mix-blend-mode:passthrough"><g style="mix-blend-mode:passthrough"></g><g style="mix-blend-mode:passthrough" clipPath="url(#master_svg0_2080_009512)"><g style="mix-blend-mode:passthrough"><path d="M-0.0000429503052146174,38L6.292177049694786,38L6.292177049694786,18.983C6.292177049694786,18.983,6.107917049694786,14.8149,8.925887049694785,11.1661C8.925887049694785,11.1661,10.719057049694785,8.72001,13.885757049694785,7.32892C13.885757049694785,7.32892,19.508857049694786,4.59794,25.128457049694784,8.0307L25.128457049694784,1.16561C25.128457049694784,1.16561,18.996457049694786,-1.69746,11.383457049694785,1.55071C11.383457049694785,1.55071,4.106867049694785,4.26921,1.1286870496947854,12.3769C1.1286870496947854,12.3769,-0.0000429503052146174,15.601,-0.0000429503052146174,18.4159L-0.0000429503052146174,38Z" fill-rule="evenodd" fill="#DD2727" fill-opacity="1"/></g></g></g><g style="mix-blend-mode:passthrough"><path d="M37.259603515625,0L30.967403515625,0L30.967403515625,19.0173C30.967403515625,19.0173,31.151603515625,23.1849,28.333603515625,26.8337C28.333603515625,26.8337,26.540503515624998,29.2798,23.373803515625,30.6713C23.373803515625,30.6713,17.750713515625,33.4022,12.131103515625,29.9695L12.131103515625,36.8341C12.131103515625,36.8341,18.263103515624998,39.6976,25.876003515625,36.4494C25.876003515625,36.4494,33.152703515625,33.731,36.130803515625004,25.6229C36.130803515625004,25.6229,37.259603515625,22.3992,37.259603515625,19.5844L37.259603515625,0Z" fill-rule="evenodd" fill="#EC8F27" fill-opacity="1"/></g><g style="mix-blend-mode:passthrough"><path d="M24.262103515625,18.9995515625C24.262103515625,22.3385515625,21.546663515625,25.045001562499998,18.196593515625,25.045001562499998C14.846533515625,25.045001562499998,12.131103515625,22.3385515625,12.131103515625,18.9995515625C12.131103515625,15.6605615625,14.846533515625,12.9541015625,18.196593515625,12.9541015625C21.546663515625,12.9541015625,24.262103515625,15.6605615625,24.262103515625,18.9995515625L24.262103515625,18.9995515625Z" fill-rule="evenodd" fill="#E45928" fill-opacity="1"/></g></g></g></svg>